<svg id="visual" viewBox="0 0 900 600" width="900" height="600" xmlns="http://www.w3.org/2000/svg" xmlns:xlink="http://www.w3.org/1999/xlink" version="1.1"><rect x="0" y="0" width="900" height="600" fill="#001220"></rect><defs><linearGradient id="grad1_0" x1="33.3%" y1="0%" x2="100%" y2="100%"><stop offset="20%" stop-color="#001220" stop-opacity="1"></stop><stop offset="80%" stop-color="#001220" stop-opacity="1"></stop></linearGradient></defs><defs><linearGradient id="grad2_0" x1="0%" y1="0%" x2="66.7%" y2="100%"><stop offset="20%" stop-color="#001220" stop-opacity="1"></stop><stop offset="80%" stop-color="#001220" stop-opacity="1"></stop></linearGradient></defs><g transform="translate(900, 0)"><path d="M0 270.4C-7.8 250.2 -15.5 230 -28.4 234.3C-41.4 238.5 -59.4 267.3 -61.3 248.6C-63.1 229.9 -48.7 163.7 -62.4 164.6C-76.1 165.4 -118 233.3 -118 224.9C-118.1 216.6 -76.4 132 -86.3 125.1C-96.3 118.2 -157.9 188.9 -179.3 202.4C-200.7 215.9 -182 172.3 -154.9 137.3C-127.9 102.3 -92.7 76 -120.2 82.9C-147.6 89.9 -237.8 130.1 -236.4 124.1C-235 118.1 -142.1 65.8 -129 48.9C-116 32.1 -182.9 50.6 -214.6 52.9C-246.3 55.2 -242.8 41.4 -246.2 29.9C-249.6 18.4 -260 9.2 -270.4 0L0 0Z" fill="#FBAE3C"></path></g><g transform="translate(0, 600)"><path d="M0 -270.4C10.9 -258 21.7 -245.6 27 -222.4C32.3 -199.1 32 -165.1 41.6 -168.9C51.3 -172.8 71 -214.6 90.1 -237.5C109.2 -260.4 127.7 -264.3 125.7 -239.4C123.6 -214.6 101 -161 95.4 -138.3C89.9 -115.6 101.5 -123.8 114.7 -129.5C127.9 -135.2 142.8 -138.3 153.4 -135.9C164.1 -133.6 170.5 -125.9 160.5 -110.8C150.5 -95.7 124 -73.3 130.2 -68.3C136.3 -63.4 175 -75.9 204.8 -77.7C234.5 -79.4 255.4 -70.5 234 -57.7C212.6 -44.9 148.9 -28.2 147.9 -18C146.9 -7.7 208.7 -3.9 270.4 0L0 0Z" fill="#FBAE3C"></path></g></svg>